<svg width="76" height="54" viewBox="0 0 76 54" fill="none" xmlns="http://www.w3.org/2000/svg">
<path d="M14.5 35.1001C12.85 39.2501 10.25 43.3501 6.775 47.3001C5.675 48.5501 5.525 50.3501 6.425 51.7501C7.125 52.8501 8.275 53.4501 9.525 53.4501C9.875 53.4501 10.225 53.4251 10.575 53.3001C17.925 51.1501 35.1 43.5251 35.575 19.0751C35.75 9.65012 28.85 1.55011 19.875 0.625115C14.9 0.125115 9.95 1.75011 6.275 5.05011C4.45741 6.69848 3.00468 8.70879 2.01012 10.9519C1.01557 13.195 0.501183 15.6214 0.5 18.0751C0.5 26.3251 6.35 33.5501 14.5 35.1001ZM59.775 0.625115C54.825 0.125115 49.875 1.75011 46.2 5.05011C44.3823 6.69838 42.9295 8.70867 41.9349 10.9518C40.9403 13.195 40.426 15.6214 40.425 18.0751C40.425 26.3251 46.275 33.5501 54.425 35.1001C52.775 39.2501 50.175 43.3501 46.7 47.3001C45.6 48.5501 45.45 50.3501 46.35 51.7501C47.05 52.8501 48.2 53.4501 49.45 53.4501C49.8 53.4501 50.15 53.4251 50.5 53.3001C57.85 51.1501 75.025 43.5251 75.5 19.0751V18.7251C75.5 9.45012 68.675 1.55011 59.775 0.625115Z" fill="#132577"/>
</svg>
